<?xml version="1.0" encoding="utf-8"?>
<!-- Generator: Adobe Illustrator 24.3.0, SVG Export Plug-In . SVG Version: 6.00 Build 0)  -->
<svg version="1.1" id="Layer_1" xmlns="http://www.w3.org/2000/svg" xmlns:xlink="http://www.w3.org/1999/xlink" x="0px" y="0px"
	 viewBox="0 0 40 40" style="enable-background:new 0 0 40 40;" xml:space="preserve">
<style type="text/css">
	.st0{fill:#FFFFFF;}
	.st1{fill:#2B2B2B;}
	.st2{fill:#DC3545;}
</style>
<g>
	<path class="st0" d="M21.6,28.4c0.8-0.9,1.6-1.8,2.3-2.7c0.7-1,1.6-1.1,2.7-0.7c1.8,0.8,3.5,1.6,5.3,2.3c1.2,0.5,1.7,1.3,1.4,2.5
		c-0.4,1.7-0.8,3.5-1.2,5.2c-0.3,1.1-0.9,1.6-2.1,1.6C17.5,36.7,6,26.6,4.5,14.2c-0.1-1.1-0.2-2.2-0.3-3.4C4.2,9.6,4.8,9,5.9,8.7
		C7.6,8.3,9.4,8,11.1,7.5c1.1-0.3,1.9,0.1,2.3,1.1c0.9,2,1.7,4,2.5,5.9c0.4,0.9,0.2,1.7-0.6,2.3c-0.9,0.8-1.8,1.5-2.8,2.3
		C13.4,22.2,17.4,26.4,21.6,28.4z"/>
</g>
<g>
	<path class="st0" d="M31.6,8.4c0.1-0.1,0.3-0.2,0.4-0.2c0.2,0,0.3,0.1,0.4,0.2l0.3,0.3C32.9,8.8,33,8.9,33,9.1
		c0,0.2-0.1,0.3-0.2,0.4l-3.2,3.2l3.2,3.2c0.1,0.1,0.2,0.3,0.2,0.4c0,0.2-0.1,0.3-0.2,0.4l-0.3,0.3c-0.1,0.1-0.3,0.2-0.4,0.2
		c-0.2,0-0.3-0.1-0.4-0.2l-3.2-3.2l-3.2,3.2c-0.1,0.1-0.3,0.2-0.4,0.2c-0.2,0-0.3-0.1-0.4-0.2L24,16.8c-0.1-0.1-0.2-0.3-0.2-0.4
		c0-0.2,0.1-0.3,0.2-0.4l3.2-3.2L24,9.5c-0.1-0.1-0.2-0.3-0.2-0.4c0-0.2,0-0.3,0.2-0.4l0.3-0.3c0.1-0.1,0.3-0.2,0.4-0.2
		c0.2,0,0.3,0.1,0.4,0.2l3.2,3.2L31.6,8.4z"/>
</g>
</svg>
