<?xml version="1.0" encoding="utf-8"?>
<!-- Generator: Adobe Illustrator 24.3.0, SVG Export Plug-In . SVG Version: 6.00 Build 0)  -->
<svg version="1.1" id="Layer_1" xmlns="http://www.w3.org/2000/svg" xmlns:xlink="http://www.w3.org/1999/xlink" x="0px" y="0px"
	 viewBox="0 0 40 40" style="enable-background:new 0 0 40 40;" xml:space="preserve">
<style type="text/css">
	.st0{fill:#FFFFFF;}
	.st1{fill:#2B2B2B;}
	.st2{fill:#DC3545;}
</style>
<g>
	<path class="st1" d="M25.3,16.5c0,1.6,0,3.1,0,4.7c-0.1,2.9-2.3,5.2-5.2,5.4c-2.8,0.1-5.4-2.1-5.6-5c-0.1-3.3-0.1-6.7,0-10
		c0.1-2.9,2.6-5.2,5.5-5.1c3,0.1,5.3,2.4,5.3,5.4C25.4,13.3,25.3,14.9,25.3,16.5z"/>
	<path class="st1" d="M21.4,31c-0.3,2-0.3,2,1.6,2c0.4,0,1.7-0.1,1.9,0.1c0.5,0.5,0.3,1.1,0.4,1.7c0,1-0.6,0.8-1.2,0.8
		c-2.6,0-5.3,0-7.9,0c-0.7,0-1.5,0.1-1.6-0.9c0-1,0-1.7,1.6-1.7c0.8,0,1.5,0,2.3,0c0.5-1.9,0.5-2-1.2-2.5c-4.9-1.5-7.8-6.2-7.2-11.9
		c0.1-0.8,0.6-1.4,1.4-1.1c0.5,0.2,1,0.7,1.2,1.2c0.2,0.6,0.1,1.3,0.1,1.9c0,4.1,3.2,7.6,7,7.7c4,0.2,7.2-2.8,7.6-7
		c0.1-0.9-0.1-1.8,0.1-2.7c0.1-0.5,0.8-1.1,1.2-1.1c0.4,0,1.2,0.6,1.3,1c1,4.9-1.7,10-6.2,11.7C22.9,30.6,22.1,30.8,21.4,31z"/>
</g>
</svg>
