<?xml version="1.0" encoding="utf-8"?>
<!-- Generator: Adobe Illustrator 24.3.0, SVG Export Plug-In . SVG Version: 6.00 Build 0)  -->
<svg version="1.1" id="Layer_1" xmlns="http://www.w3.org/2000/svg" xmlns:xlink="http://www.w3.org/1999/xlink" x="0px" y="0px"
	 viewBox="0 0 40 40" style="enable-background:new 0 0 40 40;" xml:space="preserve">
<style type="text/css">
	.st0{fill:#FFFFFF;}
	.st1{fill:#2B2B2B;}
	.st2{fill:#DC3545;}
</style>
<g>
	<path class="st0" d="M16.1,33.9c-2.9,0-5.8,0-8.8,0c-1.4,0-2-0.6-1.9-2c0.1-4.2,3.4-7.5,7.9-7.9c2.2-0.2,4.4-0.1,6.6,0.2
		c3.8,0.4,6.8,4,6.9,7.9c0,1.1-0.6,1.8-1.8,1.8C22,33.9,19.1,33.9,16.1,33.9z"/>
	<path class="st0" d="M22.2,15.6c0,3.4-2.8,6.1-6.1,6.1c-3.4-0.1-6-2.7-6-6.1c0-3.4,2.7-6.1,6.1-6.1C19.5,9.4,22.2,12.2,22.2,15.6z"
		/>
	<path class="st0" d="M22.3,20.1c1.7-2.6,1.9-5.2,0.7-7.9c2-1.8,5.1-1.5,7,0.6c1.9,2.1,1.8,5.4-0.3,7.4
		C27.6,22.2,24.4,22.1,22.3,20.1z"/>
	<path class="st0" d="M25.2,24.7c1.7,0.1,3.4,0,5,0.4c3.1,0.6,5.5,3.5,5.7,6.7c0.1,1.5-0.4,2.1-2,2.1c-1.9,0-3.9,0-5.9,0
		C29,30.4,27.5,27.3,25.2,24.7z"/>
</g>
</svg>
