<?xml version="1.0" encoding="utf-8"?>
<!-- Generator: Adobe Illustrator 24.3.0, SVG Export Plug-In . SVG Version: 6.00 Build 0)  -->
<svg version="1.1" id="Layer_1" xmlns="http://www.w3.org/2000/svg" xmlns:xlink="http://www.w3.org/1999/xlink" x="0px" y="0px"
	 viewBox="0 0 40 40" style="enable-background:new 0 0 40 40;" xml:space="preserve">
<style type="text/css">
	.st0{fill:#FFFFFF;}
	.st1{fill:#2B2B2B;}
	.st2{fill:#DC3545;}
</style>
<g>
	<g>
		<path class="st2" d="M14.7,14.5c0-1.3,0-2.2,0-3.2c0.1-3.1,2.4-5.4,5.4-5.4c2.8,0,5.3,2.3,5.4,5.2c0.1,3.7-0.2,7.4-0.2,11.1
			c0,0.5,0.6,1,1,1.5c0.2,0,0.4,0,0.6-0.1c0.2-1.2,0.4-1.8,0.7-2.9c0.3-1.1,0.1-2.3,0.3-2.8c0.2-0.5,0.4-0.8,0.9-0.9
			c0.8-0.2,1.3,0.4,1.3,1.2c0.1,2.2,0.1,4.4-0.9,6.5c-0.4,0.7-0.2,1.1,0.4,1.6c2.7,2,5.3,4.2,7.9,6.2c0.6,0.5,1.1,1,0.6,1.9
			c-0.5,0.9-1.3,1-2.3,0.2c-2-1.5-3.9-3.1-5.9-4.6C21,22.9,12,15.9,3,8.9C2.7,8.6,2.2,8.4,2.1,8C2,7.5,2,6.7,2.3,6.4
			C2.6,6.1,3.4,6,3.8,6.2c0.8,0.4,1.4,1,2.1,1.5C8.7,9.9,11.6,12.1,14.7,14.5z"/>
		<path class="st2" d="M10,18.1c1.5,1,2.6,1.8,2.9,3.7c0.8,4.5,5.3,6.7,8.6,6.1c0.9-0.2,2.1,0.8,3.1,1.2c0,0.2-0.1,0.4-0.1,0.5
			c-1,0.3-2,0.7-2.9,1c-0.3,1.9-0.3,1.9,1.6,2c0.8,0,1.7-0.1,2.1,0.9c0.4,1,0,1.7-1.1,1.7c-2.7,0-5.4,0-8,0c-0.7,0-1.5,0-1.5-1
			c0-1,0.5-1.5,1.5-1.6c0.8,0,1.5,0,2.3,0c0.4-1.9,0.4-1.9-1.2-2.4c-4-1.2-6.9-4.9-7.2-9.4C10,20,10,19.1,10,18.1z"/>
	</g>
</g>
</svg>
