<?xml version="1.0" encoding="UTF-8"?>
<svg width="888px" height="888px" viewBox="0 0 888 888" version="1.1" xmlns="http://www.w3.org/2000/svg" xmlns:xlink="http://www.w3.org/1999/xlink">
    <!-- Generator: Sketch 53.1 (72631) - https://sketchapp.com -->
    <title>Shape</title>
    <desc>Created with Sketch.</desc>
    <g id="Page-1" stroke="none" stroke-width="1" fill="none" fill-rule="evenodd">
        <path d="M483.191877,886.294009 L540.256445,805.11857 L630.557693,847.022283 C654.516993,835.912949 677.319087,822.729971 698.733556,807.703768 L707.62815,708.414852 L807.180814,699.477224 C822.139007,678.251994 835.283583,655.65682 846.389165,631.917078 L804.226931,540.861389 L886.307703,483.034986 C887.428063,470.172582 888,457.153083 888,444 C888,430.948844 887.436893,418.029208 886.333679,405.264085 L804.169222,347.353995 L846.388791,256.082123 C835.326283,232.43458 822.240585,209.922736 807.354461,188.769353 L707.470486,179.74282 L698.487366,80.1236079 C677.144418,65.1690922 654.425341,52.04457 630.557915,40.9778199 L540.041072,82.9391425 L482.893161,1.6799663 C470.07688,0.567740299 457.104741,0 444,0 C430.429752,0 417.001694,0.608791266 403.741649,1.80055197 L346.743555,82.8814305 L256.942517,41.2098361 C232.76766,52.4557748 209.774146,65.8140455 188.199145,81.0474763 L179.37185,179.585148 L80.8867493,188.426933 C65.6746215,210.000419 52.3364908,232.990075 41.1091507,257.159109 L82.7730694,347.138611 L1.75835444,404.213971 C0.594422503,417.320537 0,430.590851 0,444 C0,457.30716 0.585414671,470.47759 1.73189509,483.48694 L82.8307784,540.646005 L41.1092706,630.84115 C52.2939371,654.918279 65.5733725,677.824982 80.7134741,699.327156 L179.529514,708.25718 L188.444965,807.125965 C209.948783,822.287372 232.859471,835.586937 256.942548,846.790178 L346.958928,805.060858 L404.040876,886.22624 C417.203695,887.400332 430.531818,888 444,888 C457.206564,888 470.278457,887.423403 483.191877,886.294009 Z M443.944509,717.3482 C293.723057,717.3482 171.944509,595.371893 171.944509,444.906493 C171.944509,294.441093 293.723057,172.464786 443.944509,172.464786 C594.165961,172.464786 715.944509,294.441093 715.944509,444.906493 C715.944509,595.371893 594.165961,717.3482 443.944509,717.3482 Z" id="Shape" fill="#3F3F3F" fill-rule="nonzero"></path>
    </g>
</svg>