<?xml version="1.0" encoding="UTF-8"?>
<svg width="24px" height="24px" viewBox="0 0 24 24" version="1.1" xmlns="http://www.w3.org/2000/svg" xmlns:xlink="http://www.w3.org/1999/xlink">
    <!-- Generator: Sketch 64 (93537) - https://sketch.com -->
    <title>icon/material/edit</title>
    <desc>Created with Sketch.</desc>
    <g id="icon/material/edit" stroke="none" stroke-width="1" fill="none" fill-rule="evenodd">
        <g id="ic-round-edit">
            <g id="Icon" fill="#4D4D4D">
                <path d="M3,17.46 L3,20.5 C3,20.78 3.22,21 3.5,21 L6.54,21 C6.67,21 6.8,20.95 6.89,20.85 L17.81,9.94 L14.06,6.19 L3.15,17.1 C3.05,17.2 3,17.32 3,17.46 Z M20.71,7.04 C20.8972281,6.85315541 21.002444,6.59950947 21.002444,6.335 C21.002444,6.07049053 20.8972281,5.81684459 20.71,5.63 L18.37,3.29 C18.1831554,3.10277191 17.9295095,2.99755597 17.665,2.99755597 C17.4004905,2.99755597 17.1468446,3.10277191 16.96,3.29 L15.13,5.12 L18.88,8.87 L20.71,7.04 Z" id="Icon-Shape"></path>
            </g>
            <rect id="ViewBox" fill-rule="nonzero" x="0" y="0" width="24" height="24"></rect>
        </g>
    </g>
</svg>
