<?xml version="1.0" encoding="UTF-8" standalone="no"?>
<!-- Created with Inkscape (http://www.inkscape.org/) -->
<svg
   xmlns:dc="http://purl.org/dc/elements/1.1/"
   xmlns:cc="http://creativecommons.org/ns#"
   xmlns:rdf="http://www.w3.org/1999/02/22-rdf-syntax-ns#"
   xmlns:svg="http://www.w3.org/2000/svg"
   xmlns="http://www.w3.org/2000/svg"
   xmlns:sodipodi="http://sodipodi.sourceforge.net/DTD/sodipodi-0.dtd"
   xmlns:inkscape="http://www.inkscape.org/namespaces/inkscape"
   width="110.003"
   height="110.001"
   id="svg2621"
   sodipodi:version="0.32"
   inkscape:version="0.46"
   version="1.0"
   sodipodi:docname="gear 6.svg"
   inkscape:output_extension="org.inkscape.output.svg.inkscape">
  <defs
     id="defs2623">
    <inkscape:perspective
       sodipodi:type="inkscape:persp3d"
       inkscape:vp_x="0 : 526.18109 : 1"
       inkscape:vp_y="0 : 1000 : 0"
       inkscape:vp_z="744.09448 : 526.18109 : 1"
       inkscape:persp3d-origin="372.04724 : 350.78739 : 1"
       id="perspective2629" />
  </defs>
  <sodipodi:namedview
     id="base"
     pagecolor="#ffffff"
     bordercolor="#666666"
     borderopacity="1.0"
     gridtolerance="10000"
     guidetolerance="10"
     objecttolerance="10"
     inkscape:pageopacity="0.0"
     inkscape:pageshadow="2"
     inkscape:zoom="0.35"
     inkscape:cx="375"
     inkscape:cy="520"
     inkscape:document-units="px"
     inkscape:current-layer="layer1"
     showgrid="false"
     inkscape:window-width="672"
     inkscape:window-height="718"
     inkscape:window-x="600"
     inkscape:window-y="249" />
  <metadata
     id="metadata2626">
    <rdf:RDF>
      <cc:Work
         rdf:about="">
        <dc:format>image/svg+xml</dc:format>
        <dc:type
           rdf:resource="http://purl.org/dc/dcmitype/StillImage" />
        <cc:license
           rdf:resource="http://creativecommons.org/licenses/by-sa/3.0/" />
        <dc:creator>
          <cc:Agent>
            <dc:title>eugrafia</dc:title>
          </cc:Agent>
        </dc:creator>
      </cc:Work>
      <cc:License
         rdf:about="http://creativecommons.org/licenses/by-sa/3.0/">
        <cc:permits
           rdf:resource="http://creativecommons.org/ns#Reproduction" />
        <cc:permits
           rdf:resource="http://creativecommons.org/ns#Distribution" />
        <cc:requires
           rdf:resource="http://creativecommons.org/ns#Notice" />
        <cc:requires
           rdf:resource="http://creativecommons.org/ns#Attribution" />
        <cc:permits
           rdf:resource="http://creativecommons.org/ns#DerivativeWorks" />
        <cc:requires
           rdf:resource="http://creativecommons.org/ns#ShareAlike" />
      </cc:License>
    </rdf:RDF>
  </metadata>
  <g
     inkscape:label="Layer 1"
     inkscape:groupmode="layer"
     id="layer1"
     transform="translate(-319.9985,-477.36168)">
    <g
       id="g23"
       transform="translate(-102.5005,305.41968)">
      <path
         d="M 525.629,226.942 C 525.629,225.19 525.531,223.462 525.345,221.759 L 532.502,218.894 C 532.08,216.047 531.441,213.271 530.598,210.583 L 522.889,211.075 C 521.712,207.779 520.179,204.651 518.335,201.734 L 523.527,196.083 C 521.907,193.725 520.106,191.499 518.147,189.423 L 511.424,193.171 C 508.945,190.734 506.201,188.563 503.236,186.703 L 505.434,179.381 C 502.962,177.958 500.371,176.716 497.676,175.678 L 493.261,181.944 C 490,180.826 486.576,180.046 483.04,179.645 L 481.809,172.105 C 480.388,171.997 478.953,171.942 477.501,171.942 C 476.052,171.942 474.615,171.997 473.193,172.105 L 471.964,179.645 C 468.425,180.046 465.004,180.826 461.742,181.944 L 457.327,175.678 C 454.632,176.717 452.04,177.957 449.569,179.381 L 451.766,186.703 C 448.801,188.562 446.057,190.735 443.578,193.171 L 436.855,189.423 C 434.896,191.499 433.095,193.725 431.476,196.083 L 436.667,201.734 C 434.823,204.651 433.291,207.779 432.113,211.075 L 424.404,210.583 C 423.56,213.271 422.921,216.047 422.499,218.894 L 429.657,221.759 C 429.47,223.462 429.372,225.19 429.372,226.942 C 429.372,228.694 429.471,230.422 429.657,232.125 L 422.499,234.99 C 422.921,237.837 423.561,240.613 424.404,243.301 L 432.113,242.809 C 433.291,246.105 434.823,249.233 436.667,252.15 L 431.476,257.803 C 433.095,260.159 434.896,262.386 436.855,264.462 L 443.578,260.714 C 446.057,263.15 448.801,265.322 451.766,267.181 L 449.569,274.504 C 452.04,275.927 454.632,277.169 457.327,278.207 L 461.742,271.941 C 465.004,273.059 468.425,273.838 471.964,274.239 L 473.193,281.78 C 474.615,281.888 476.051,281.943 477.501,281.943 C 478.952,281.943 480.388,281.888 481.809,281.78 L 483.04,274.239 C 486.576,273.838 490,273.059 493.261,271.941 L 497.676,278.207 C 500.371,277.169 502.962,275.928 505.434,274.505 L 503.236,267.181 C 506.202,265.323 508.946,263.15 511.424,260.714 L 518.147,264.462 C 520.106,262.386 521.907,260.16 523.527,257.803 L 518.334,252.15 C 520.179,249.233 521.712,246.105 522.889,242.809 L 530.598,243.301 C 531.442,240.613 532.08,237.837 532.502,234.99 L 525.345,232.125 C 525.531,230.423 525.629,228.694 525.629,226.942 z M 477.502,268.396 C 454.362,268.396 435.602,249.836 435.602,226.943 C 435.602,204.05 454.363,185.489 477.502,185.489 C 500.644,185.489 519.404,204.05 519.404,226.943 C 519.404,249.836 500.644,268.396 477.502,268.396 z"
         id="path25" />
    </g>
  </g>
</svg>
