<?xml version="1.0" encoding="UTF-8"?>
<svg id="Layer_1" data-name="Layer 1" xmlns="http://www.w3.org/2000/svg" viewBox="0 0 543.23 543.42">
  <path d="M526.6,248.64c-5.65-66.35-33.97-122.27-83.32-166.82C388.03,31.95,322.56,10.56,248.49,16.63,123.14,26.9,13.1,134.53,15.66,277.66c2.51,139.99,124.21,261.99,278.86,249.21,123.57-10.21,245.46-121.2,232.08-278.23Z"/>
  <path d="M271.84,284.23c13.9-13.98,27.73-27.9,41.58-41.8,11.99-12.03,23.97-24.08,36.02-36.05,10.11-10.05,22.06-10.06,32.17-.12,3.44,3.39,6.88,6.78,10.23,10.27,9.18,9.55,9.14,21.67-.26,31.08-34.71,34.79-69.45,69.54-104.22,104.26-9.72,9.71-21.61,9.7-31.22,.09-34.75-34.74-69.5-69.49-104.23-104.26-9.76-9.77-9.81-21.36-.17-31.3,3.25-3.35,6.5-6.69,9.8-9.99,10.1-10.06,22.02-10.22,32.14-.16,25.15,25.03,50.18,50.16,75.26,75.25,.82,.82,1.69,1.59,2.9,2.73Z" fill="#fff"/>
</svg>